<svg xmlns="http://www.w3.org/2000/svg" width="1600" height="900" viewBox="0 0 1600 900" role="img" aria-label="SoilPulse-ET tile decision chart">
<rect width="1600" height="900" fill="#f8fafc"/>
<text x="72" y="78" font-family="Arial, sans-serif" font-size="42" font-weight="700" fill="#111827">Tile-level decisions: priority versus evidence</text>
<text x="72" y="122" font-family="Arial, sans-serif" font-size="24" fill="#4b5563">Bars show event priority. Black ticks show evidence quality. Color shows the onboard packet action.</text>
<rect x="662" y="102" width="20" height="20" rx="4" fill="#2563eb"/><text x="692" y="120" font-family="Arial, sans-serif" font-size="19" fill="#374151">priority chip</text>
<rect x="870" y="102" width="20" height="20" rx="4" fill="#059669"/><text x="900" y="120" font-family="Arial, sans-serif" font-size="19" fill="#374151">feature summary</text>
<rect x="1115" y="102" width="20" height="20" rx="4" fill="#6b7280"/><text x="1145" y="120" font-family="Arial, sans-serif" font-size="19" fill="#374151">defer</text>
<text x="88" y="160" font-family="Arial, sans-serif" font-size="19" font-weight="700" fill="#374151">Candidate tile</text>
<text x="662" y="160" font-family="Arial, sans-serif" font-size="19" font-weight="700" fill="#374151">Onboard score and action</text>

<text x="88" y="206" font-family="Arial, sans-serif" font-size="21" font-weight="700" fill="#111827">cv-covercrop-013</text>
<text x="88" y="234" font-family="Arial, sans-serif" font-size="17" fill="#6b7280">mission-scenario row</text>
<rect x="662" y="178" width="720" height="34" rx="8" fill="#e5e7eb"/>
<rect x="662" y="178" width="532.4" height="34" rx="8" fill="#2563eb"/>
<line x1="1219.6" y1="172" x2="1219.6" y2="218" stroke="#111827" stroke-width="3"/>
<text x="1524" y="205" text-anchor="end" font-family="Arial, sans-serif" font-size="20" fill="#111827">priority 0.74 / evidence 0.77</text>
<text x="662" y="240" font-family="Arial, sans-serif" font-size="17" font-weight="700" fill="#2563eb">priority_chip</text>

<text x="88" y="282" font-family="Arial, sans-serif" font-size="21" font-weight="700" fill="#111827">cv-vineyard-032</text>
<text x="88" y="310" font-family="Arial, sans-serif" font-size="17" fill="#6b7280">mission-scenario row</text>
<rect x="662" y="254" width="720" height="34" rx="8" fill="#e5e7eb"/>
<rect x="662" y="254" width="509.4" height="34" rx="8" fill="#2563eb"/>
<line x1="1187.0" y1="248" x2="1187.0" y2="294" stroke="#111827" stroke-width="3"/>
<text x="1524" y="281" text-anchor="end" font-family="Arial, sans-serif" font-size="20" fill="#111827">priority 0.71 / evidence 0.73</text>
<text x="662" y="316" font-family="Arial, sans-serif" font-size="17" font-weight="700" fill="#2563eb">priority_chip</text>

<text x="88" y="358" font-family="Arial, sans-serif" font-size="21" font-weight="700" fill="#111827">cv-pasture-021</text>
<text x="88" y="386" font-family="Arial, sans-serif" font-size="17" fill="#6b7280">mission-scenario row</text>
<rect x="662" y="330" width="720" height="34" rx="8" fill="#e5e7eb"/>
<rect x="662" y="330" width="397.7" height="34" rx="8" fill="#059669"/>
<line x1="1221.9" y1="324" x2="1221.9" y2="370" stroke="#111827" stroke-width="3"/>
<text x="1524" y="357" text-anchor="end" font-family="Arial, sans-serif" font-size="20" fill="#111827">priority 0.55 / evidence 0.78</text>
<text x="662" y="392" font-family="Arial, sans-serif" font-size="17" font-weight="700" fill="#059669">feature_summary</text>

<text x="88" y="434" font-family="Arial, sans-serif" font-size="21" font-weight="700" fill="#111827">cv-orchard-044</text>
<text x="88" y="462" font-family="Arial, sans-serif" font-size="17" fill="#6b7280">mission-scenario row</text>
<rect x="662" y="406" width="720" height="34" rx="8" fill="#e5e7eb"/>
<rect x="662" y="406" width="314.7" height="34" rx="8" fill="#059669"/>
<line x1="1111.4" y1="400" x2="1111.4" y2="446" stroke="#111827" stroke-width="3"/>
<text x="1524" y="433" text-anchor="end" font-family="Arial, sans-serif" font-size="20" fill="#111827">priority 0.44 / evidence 0.62</text>
<text x="662" y="468" font-family="Arial, sans-serif" font-size="17" font-weight="700" fill="#059669">feature_summary</text>

<text x="88" y="510" font-family="Arial, sans-serif" font-size="21" font-weight="700" fill="#111827">cv-riparian-016</text>
<text x="88" y="538" font-family="Arial, sans-serif" font-size="17" fill="#6b7280">mission-scenario row</text>
<rect x="662" y="482" width="720" height="34" rx="8" fill="#e5e7eb"/>
<rect x="662" y="482" width="229.8" height="34" rx="8" fill="#6b7280"/>
<line x1="1029.9" y1="476" x2="1029.9" y2="522" stroke="#111827" stroke-width="3"/>
<text x="1524" y="509" text-anchor="end" font-family="Arial, sans-serif" font-size="20" fill="#111827">priority 0.32 / evidence 0.51</text>
<text x="662" y="544" font-family="Arial, sans-serif" font-size="17" font-weight="700" fill="#6b7280">defer</text>

<text x="88" y="586" font-family="Arial, sans-serif" font-size="21" font-weight="700" fill="#111827">cv-riparian-016-ecostress</text>
<text x="88" y="614" font-family="Arial, sans-serif" font-size="17" fill="#6b7280">real ECOSTRESS knowledge-gap row</text>
<rect x="662" y="558" width="720" height="34" rx="8" fill="#e5e7eb"/>
<rect x="662" y="558" width="200.8" height="34" rx="8" fill="#6b7280"/>
<line x1="861.8" y1="552" x2="861.8" y2="598" stroke="#111827" stroke-width="3"/>
<text x="1524" y="585" text-anchor="end" font-family="Arial, sans-serif" font-size="20" fill="#111827">priority 0.28 / evidence 0.28</text>
<text x="662" y="620" font-family="Arial, sans-serif" font-size="17" font-weight="700" fill="#6b7280">defer</text>

<text x="88" y="662" font-family="Arial, sans-serif" font-size="21" font-weight="700" fill="#111827">cv-rangeland-008</text>
<text x="88" y="690" font-family="Arial, sans-serif" font-size="17" fill="#6b7280">mission-scenario row</text>
<rect x="662" y="634" width="720" height="34" rx="8" fill="#e5e7eb"/>
<rect x="662" y="634" width="196.7" height="34" rx="8" fill="#6b7280"/>
<line x1="1100.1" y1="628" x2="1100.1" y2="674" stroke="#111827" stroke-width="3"/>
<text x="1524" y="661" text-anchor="end" font-family="Arial, sans-serif" font-size="20" fill="#111827">priority 0.27 / evidence 0.61</text>
<text x="662" y="696" font-family="Arial, sans-serif" font-size="17" font-weight="700" fill="#6b7280">defer</text>

<text x="88" y="738" font-family="Arial, sans-serif" font-size="21" font-weight="700" fill="#111827">cv-fallow-003</text>
<text x="88" y="766" font-family="Arial, sans-serif" font-size="17" fill="#6b7280">mission-scenario row</text>
<rect x="662" y="710" width="720" height="34" rx="8" fill="#e5e7eb"/>
<rect x="662" y="710" width="78.2" height="34" rx="8" fill="#6b7280"/>
<line x1="1257.0" y1="704" x2="1257.0" y2="750" stroke="#111827" stroke-width="3"/>
<text x="1524" y="737" text-anchor="end" font-family="Arial, sans-serif" font-size="20" fill="#111827">priority 0.11 / evidence 0.83</text>
<text x="662" y="772" font-family="Arial, sans-serif" font-size="17" font-weight="700" fill="#6b7280">defer</text>

<text x="72" y="850" font-family="Arial, sans-serif" font-size="20" fill="#6b7280">Screen-share note: this chart explains why the system sends two priority chips, sends two compact summaries, and defers cloudy or low-confidence tiles.</text>
</svg>
